{
  "accessors": [
    {
      "bufferView": 2,
      "componentType": 5126,
      "count": 6474,
      "max": [
        1.7015092372894287,
        1.1982825994491577,
        3.895296096801758
      ],
      "min": [
        -1.6758363246917725,
        -1.1748462915420532,
        -1.2464232444763184
      ],
      "type": "VEC3"
    },
    {
      "bufferView": 2,
      "byteOffset": 77688,
      "componentType": 5126,
      "count": 6474,
      "max": [
        1,
        1,
        1
      ],
      "min": [
        -1,
        -1,
        -1
      ],
      "type": "VEC3"
    },
    {
      "bufferView": 3,
      "componentType": 5126,
      "count": 6474,
      "max": [
        1,
        1,
        1,
        1
      ],
      "min": [
        -0.7869826555252075,
        -0.9272696375846863,
        -0.7642296552658081,
        -1
      ],
      "type": "VEC4"
    },
    {
      "bufferView": 1,
      "componentType": 5126,
      "count": 6474,
      "max": [
        1.0798954963684082,
        1.3058762550354004
      ],
      "min": [
        -0.13990890979766846,
        -0.4841919541358948
      ],
      "type": "VEC2"
    },
    {
      "bufferView": 1,
      "byteOffset": 51792,
      "componentType": 5126,
      "count": 6474,
      "max": [
        1.0798954963684082,
        1.3058762550354004
      ],
      "min": [
        -0.13990890979766846,
        -0.4841919541358948
      ],
      "type": "VEC2"
    },
    {
      "bufferView": 1,
      "byteOffset": 103584,
      "componentType": 5126,
      "count": 6474,
      "max": [
        1.0798954963684082,
        1.3058762550354004
      ],
      "min": [
        -0.13990890979766846,
        -0.4841919541358948
      ],
      "type": "VEC2"
    },
    {
      "bufferView": 0,
      "componentType": 5125,
      "count": 12165,
      "type": "SCALAR"
    },
    {
      "bufferView": 2,
      "byteOffset": 155376,
      "componentType": 5126,
      "count": 17500,
      "max": [
        1.7015092372894287,
        1.2005192041397095,
        3.7937660217285156
      ],
      "min": [
        -1.6996159553527832,
        -1.2005192041397095,
        -1.2338413000106812
      ],
      "type": "VEC3"
    },
    {
      "bufferView": 2,
      "byteOffset": 365376,
      "componentType": 5126,
      "count": 17500,
      "max": [
        1,
        1,
        1
      ],
      "min": [
        -1,
        -1,
        -1
      ],
      "type": "VEC3"
    },
    {
      "bufferView": 1,
      "byteOffset": 155376,
      "componentType": 5126,
      "count": 17500,
      "max": [
        1.3193106651306152,
        1.7223327159881592
      ],
      "min": [
        -0.7130285501480103,
        -0.3668220639228821
      ],
      "type": "VEC2"
    },
    {
      "bufferView": 0,
      "byteOffset": 48660,
      "componentType": 5125,
      "count": 32034,
      "type": "SCALAR"
    },
    {
      "bufferView": 2,
      "byteOffset": 575376,
      "componentType": 5126,
      "count": 4419,
      "max": [
        1.6707087755203247,
        1.1644976139068604,
        3.7731807231903076
      ],
      "min": [
        -1.6654876470565796,
        -1.1644976139068604,
        -0.19345751404762268
      ],
      "type": "VEC3"
    },
    {
      "bufferView": 2,
      "byteOffset": 628404,
      "componentType": 5126,
      "count": 4419,
      "max": [
        1,
        1,
        1
      ],
      "min": [
        -1,
        -1,
        -1
      ],
      "type": "VEC3"
    },
    {
      "bufferView": 1,
      "byteOffset": 295376,
      "componentType": 5126,
      "count": 4419,
      "max": [
        1.5050121545791626,
        1.516002893447876
      ],
      "min": [
        -0.5050121545791626,
        -0.516002893447876
      ],
      "type": "VEC2"
    },
    {
      "bufferView": 0,
      "byteOffset": 176796,
      "componentType": 5125,
      "count": 7425,
      "type": "SCALAR"
    },
    {
      "bufferView": 2,
      "byteOffset": 681432,
      "componentType": 5126,
      "count": 600,
      "max": [
        1.6519489288330078,
        1.154415488243103,
        3.7594940662384033
      ],
      "min": [
        -1.6560084819793701,
        -1.153101921081543,
        -0.17977090179920197
      ],
      "type": "VEC3"
    },
    {
      "bufferView": 2,
      "byteOffset": 688632,
      "componentType": 5126,
      "count": 600,
      "max": [
        1,
        1,
        6.759298685210524e-7
      ],
      "min": [
        -1,
        -1,
        -0.004754371475428343
      ],
      "type": "VEC3"
    },
    {
      "bufferView": 1,
      "byteOffset": 330728,
      "componentType": 5126,
      "count": 600,
      "max": [
        0.607882022857666,
        0.9700833559036255
      ],
      "min": [
        0.3779453635215759,
        0.0368911512196064
      ],
      "type": "VEC2"
    },
    {
      "bufferView": 0,
      "byteOffset": 206496,
      "componentType": 5125,
      "count": 900,
      "type": "SCALAR"
    },
    {
      "bufferView": 2,
      "byteOffset": 695832,
      "componentType": 5126,
      "count": 234,
      "max": [
        1.69088613986969,
        1.1890616416931152,
        3.324892282485962
      ],
      "min": [
        1.1019433736801147,
        0.5751723051071167,
        -0.1514989286661148
      ],
      "type": "VEC3"
    },
    {
      "bufferView": 2,
      "byteOffset": 698640,
      "componentType": 5126,
      "count": 234,
      "max": [
        0.9999143481254578,
        0.999963104724884,
        1
      ],
      "min": [
        -0.9999058842658997,
        -0.999971866607666,
        -1
      ],
      "type": "VEC3"
    },
    {
      "bufferView": 1,
      "byteOffset": 335528,
      "componentType": 5126,
      "count": 234,
      "max": [
        0.3842560648918152,
        0.5607087016105652
      ],
      "min": [
        0.3456202447414398,
        0.5
      ],
      "type": "VEC2"
    },
    {
      "bufferView": 0,
      "byteOffset": 210096,
      "componentType": 5125,
      "count": 360,
      "type": "SCALAR"
    },
    {
      "bufferView": 2,
      "byteOffset": 701448,
      "componentType": 5126,
      "count": 4,
      "max": [
        1.6219418048858643,
        0.869144082069397,
        -0.5388208627700806
      ],
      "min": [
        1.620793104171753,
        0.35867422819137573,
        -1.216537594795227
      ],
      "type": "VEC3"
    },
    {
      "bufferView": 2,
      "byteOffset": 701496,
      "componentType": 5126,
      "count": 4,
      "max": [
        0.9999990463256836,
        -0.0012248760322108865,
        0.0007725530304014683
      ],
      "min": [
        0.9999990463256836,
        -0.0012248760322108865,
        0.0007725530304014683
      ],
      "type": "VEC3"
    },
    {
      "bufferView": 1,
      "byteOffset": 337400,
      "componentType": 5126,
      "count": 4,
      "max": [
        0.8652726411819458,
        0.9284189939498901
      ],
      "min": [
        0.1185469925403595,
        0.07285180687904358
      ],
      "type": "VEC2"
    },
    {
      "bufferView": 0,
      "byteOffset": 211536,
      "componentType": 5125,
      "count": 6,
      "type": "SCALAR"
    },
    {
      "bufferView": 2,
      "byteOffset": 701544,
      "componentType": 5126,
      "count": 180,
      "max": [
        1.6253902912139893,
        1.1117812395095825,
        3.9032812118530273
      ],
      "min": [
        -1.6256829500198364,
        -1.0586243867874146,
        -0.4040137827396393
      ],
      "type": "VEC3"
    },
    {
      "bufferView": 2,
      "byteOffset": 703704,
      "componentType": 5126,
      "count": 180,
      "max": [
        1,
        1.7087597825593548e-7,
        0
      ],
      "min": [
        -1,
        -1,
        0
      ],
      "type": "VEC3"
    },
    {
      "bufferView": 1,
      "byteOffset": 337432,
      "componentType": 5126,
      "count": 180,
      "max": [
        1,
        1
      ],
      "min": [
        -0.20512497425079346,
        0
      ],
      "type": "VEC2"
    },
    {
      "bufferView": 0,
      "byteOffset": 211560,
      "componentType": 5125,
      "count": 270,
      "type": "SCALAR"
    },
    {
      "bufferView": 2,
      "byteOffset": 705864,
      "componentType": 5126,
      "count": 338,
      "max": [
        1.7918713092803955,
        1.2456438541412354,
        3.973111152648926
      ],
      "min": [
        -1.7685195207595825,
        -1.2402273416519165,
        3.032449960708618
      ],
      "type": "VEC3"
    },
    {
      "bufferView": 2,
      "byteOffset": 709920,
      "componentType": 5126,
      "count": 338,
      "max": [
        0.9956924915313721,
        0.989122748374939,
        -0.079558365046978
      ],
      "min": [
        -0.9928738474845886,
        -0.9887543320655823,
        -1
      ],
      "type": "VEC3"
    },
    {
      "bufferView": 1,
      "byteOffset": 338872,
      "componentType": 5126,
      "count": 338,
      "max": [
        1.104752540588379,
        1
      ],
      "min": [
        0.125,
        0
      ],
      "type": "VEC2"
    },
    {
      "bufferView": 0,
      "byteOffset": 212640,
      "componentType": 5125,
      "count": 879,
      "type": "SCALAR"
    },
    {
      "bufferView": 2,
      "byteOffset": 713976,
      "componentType": 5126,
      "count": 220,
      "max": [
        1.7918713092803955,
        1.2456438541412354,
        4.505375385284424
      ],
      "min": [
        -1.7685195207595825,
        -1.2402273416519165,
        3.946012020111084
      ],
      "type": "VEC3"
    },
    {
      "bufferView": 2,
      "byteOffset": 716616,
      "componentType": 5126,
      "count": 220,
      "max": [
        0.4069834351539612,
        0.6402374505996704,
        1
      ],
      "min": [
        -0.3510238230228424,
        -0.46356329321861267,
        0.768155574798584
      ],
      "type": "VEC3"
    },
    {
      "bufferView": 3,
      "byteOffset": 103584,
      "componentType": 5126,
      "count": 220,
      "max": [
        0.03962506726384163,
        -0.7677106857299805,
        0.6395955681800842,
        1
      ],
      "min": [
        -0.05350317806005478,
        -0.9999935030937195,
        -0.46343931555747986,
        1
      ],
      "type": "VEC4"
    },
    {
      "bufferView": 1,
      "byteOffset": 341576,
      "componentType": 5126,
      "count": 220,
      "max": [
        3.977135181427002,
        5.7199530601501465
      ],
      "min": [
        -3.2818260192871094,
        -4.7199530601501465
      ],
      "type": "VEC2"
    },
    {
      "bufferView": 1,
      "byteOffset": 343336,
      "componentType": 5126,
      "count": 220,
      "max": [
        3.977135181427002,
        5.7199530601501465
      ],
      "min": [
        -3.2818260192871094,
        -4.7199530601501465
      ],
      "type": "VEC2"
    },
    {
      "bufferView": 1,
      "byteOffset": 345096,
      "componentType": 5126,
      "count": 220,
      "max": [
        3.977135181427002,
        5.7199530601501465
      ],
      "min": [
        -3.2818260192871094,
        -4.7199530601501465
      ],
      "type": "VEC2"
    },
    {
      "bufferView": 0,
      "byteOffset": 216156,
      "componentType": 5125,
      "count": 615,
      "type": "SCALAR"
    }
  ],
  "asset": {
    "extras": {
      "author": "Kerem Biçer (https://sketchfab.com/mr.harvester81)",
      "license": "SKETCHFAB Standard (https://sketchfab.com/licenses)",
      "source": "https://sketchfab.com/3d-models/apartment-c4ce5e332d404e71ab83c44455c1e128",
      "title": "Apartment"
    },
    "generator": "Sketchfab-15.49.0",
    "version": "2.0"
  },
  "bufferViews": [
    {
      "buffer": 0,
      "byteLength": 218616,
      "name": "floatBufferViews",
      "target": 34963,
      "byteOffset": 0
    },
    {
      "buffer": 0,
      "byteLength": 346856,
      "byteOffset": 218616,
      "byteStride": 8,
      "name": "floatBufferViews",
      "target": 34962
    },
    {
      "buffer": 0,
      "byteLength": 719256,
      "byteOffset": 565472,
      "byteStride": 12,
      "name": "floatBufferViews",
      "target": 34962
    },
    {
      "buffer": 0,
      "byteLength": 107104,
      "byteOffset": 1284728,
      "byteStride": 16,
      "name": "floatBufferViews",
      "target": 34962
    }
  ],
  "buffers": [
    {
      "uri": "apartment_data.bin",
      "byteLength": 1391832
    }
  ],
  "images": [
    {
      "uri": "apartment_img0.png"
    },
    {
      "uri": "apartment_img1.jpg"
    },
    {
      "uri": "apartment_img2.jpg"
    },
    {
      "uri": "apartment_img3.png"
    }
  ],
  "materials": [
    {
      "doubleSided": true,
      "name": "Walls",
      "normalTexture": {
        "index": 0
      },
      "pbrMetallicRoughness": {
        "baseColorFactor": [
          0.72557,
          0.577127,
          0.76397,
          1
        ],
        "metallicFactor": 0,
        "roughnessFactor": 0.8608772066277537
      }
    },
    {
      "doubleSided": true,
      "name": "Building_Frame",
      "pbrMetallicRoughness": {
        "baseColorFactor": [
          0.283268,
          0.283268,
          0.283268,
          1
        ],
        "metallicFactor": 0,
        "roughnessFactor": 0.9366593496149589
      }
    },
    {
      "doubleSided": true,
      "name": "Glass_Frame",
      "pbrMetallicRoughness": {
        "baseColorFactor": [
          0.0891245,
          0.0347614,
          0.0146259,
          1
        ],
        "metallicFactor": 0,
        "roughnessFactor": 0.9899678336232504
      }
    },
    {
      "doubleSided": true,
      "name": "Glass",
      "pbrMetallicRoughness": {
        "baseColorFactor": [
          0.8,
          0.8,
          0.8,
          1
        ],
        "metallicFactor": 0,
        "roughnessFactor": 0.8211145618000169
      }
    },
    {
      "doubleSided": true,
      "name": "Balcony_Metal",
      "pbrMetallicRoughness": {
        "baseColorFactor": [
          0.00940009,
          0.00940009,
          0.00940009,
          1
        ],
        "metallicFactor": 0
      }
    },
    {
      "doubleSided": true,
      "name": "Door",
      "pbrMetallicRoughness": {
        "baseColorTexture": {
          "index": 1
        },
        "metallicFactor": 0
      }
    },
    {
      "doubleSided": true,
      "name": "Curtain",
      "pbrMetallicRoughness": {
        "baseColorFactor": [
          0.8,
          0.8,
          0.8,
          1
        ],
        "metallicFactor": 0,
        "roughnessFactor": 0.8211145618000169
      }
    },
    {
      "doubleSided": true,
      "name": "Roof_Side",
      "pbrMetallicRoughness": {
        "baseColorFactor": [
          0.0310635,
          0.00911921,
          0,
          1
        ],
        "metallicFactor": 0
      }
    },
    {
      "doubleSided": true,
      "name": "Roof_tile",
      "normalTexture": {
        "index": 3,
        "texCoord": 1
      },
      "pbrMetallicRoughness": {
        "baseColorTexture": {
          "index": 2
        },
        "metallicFactor": 0,
        "roughnessFactor": 0.8211145618000169
      }
    }
  ],
  "meshes": [
    {
      "name": "Apartment 1_Walls_0",
      "primitives": [
        {
          "attributes": {
            "NORMAL": 1,
            "POSITION": 0,
            "TANGENT": 2,
            "TEXCOORD_0": 3,
            "TEXCOORD_1": 4,
            "TEXCOORD_2": 5
          },
          "indices": 6,
          "material": 0,
          "mode": 4
        }
      ]
    },
    {
      "name": "Apartment 1_Building Frame_0",
      "primitives": [
        {
          "attributes": {
            "NORMAL": 8,
            "POSITION": 7,
            "TEXCOORD_0": 9
          },
          "indices": 10,
          "material": 1,
          "mode": 4
        }
      ]
    },
    {
      "name": "Apartment 1_Glass Frame_0",
      "primitives": [
        {
          "attributes": {
            "NORMAL": 12,
            "POSITION": 11,
            "TEXCOORD_0": 13
          },
          "indices": 14,
          "material": 2,
          "mode": 4
        }
      ]
    },
    {
      "name": "Apartment 1_Glass_0",
      "primitives": [
        {
          "attributes": {
            "NORMAL": 16,
            "POSITION": 15,
            "TEXCOORD_0": 17
          },
          "indices": 18,
          "material": 3,
          "mode": 4
        }
      ]
    },
    {
      "name": "Apartment 1_Balcony Metal_0",
      "primitives": [
        {
          "attributes": {
            "NORMAL": 20,
            "POSITION": 19,
            "TEXCOORD_0": 21
          },
          "indices": 22,
          "material": 4,
          "mode": 4
        }
      ]
    },
    {
      "name": "Apartment 1_Door_0",
      "primitives": [
        {
          "attributes": {
            "NORMAL": 24,
            "POSITION": 23,
            "TEXCOORD_0": 25
          },
          "indices": 26,
          "material": 5,
          "mode": 4
        }
      ]
    },
    {
      "name": "Apartment 1_Curtain_0",
      "primitives": [
        {
          "attributes": {
            "NORMAL": 28,
            "POSITION": 27,
            "TEXCOORD_0": 29
          },
          "indices": 30,
          "material": 6,
          "mode": 4
        }
      ]
    },
    {
      "name": "Apartment 1_Roof Side_0",
      "primitives": [
        {
          "attributes": {
            "NORMAL": 32,
            "POSITION": 31,
            "TEXCOORD_0": 33
          },
          "indices": 34,
          "material": 7,
          "mode": 4
        }
      ]
    },
    {
      "name": "Apartment 1_Roof tile_0",
      "primitives": [
        {
          "attributes": {
            "NORMAL": 36,
            "POSITION": 35,
            "TANGENT": 37,
            "TEXCOORD_0": 38,
            "TEXCOORD_1": 39,
            "TEXCOORD_2": 40
          },
          "indices": 41,
          "material": 8,
          "mode": 4
        }
      ]
    }
  ],
  "nodes": [
    {
      "children": [
        1
      ],
      "matrix": [
        1,
        0,
        0,
        0,
        0,
        2.220446049250313e-16,
        -1,
        0,
        0,
        1,
        2.220446049250313e-16,
        0,
        0,
        0,
        0,
        1
      ],
      "name": "Sketchfab_model"
    },
    {
      "children": [
        2
      ],
      "matrix": [
        0.009999999776482582,
        0,
        0,
        0,
        0,
        0,
        0.009999999776482582,
        0,
        0,
        -0.009999999776482582,
        0,
        0,
        0,
        0,
        0,
        1
      ],
      "name": "Apartment.fbx"
    },
    {
      "children": [
        3
      ],
      "name": "RootNode"
    },
    {
      "children": [
        4,
        5,
        6,
        7,
        8,
        9,
        10,
        11,
        12
      ],
      "matrix": [
        100,
        0,
        0,
        0,
        0,
        -0.00001629206793918314,
        -99.99999999999868,
        0,
        0,
        99.99999999999868,
        -0.00001629206793918314,
        0,
        0,
        0,
        0,
        1
      ],
      "name": "Apartment 1"
    },
    {
      "mesh": 0,
      "name": "Apartment 1_Walls_0"
    },
    {
      "mesh": 1,
      "name": "Apartment 1_Building Frame_0"
    },
    {
      "mesh": 2,
      "name": "Apartment 1_Glass Frame_0"
    },
    {
      "mesh": 3,
      "name": "Apartment 1_Glass_0"
    },
    {
      "mesh": 4,
      "name": "Apartment 1_Balcony Metal_0"
    },
    {
      "mesh": 5,
      "name": "Apartment 1_Door_0"
    },
    {
      "mesh": 6,
      "name": "Apartment 1_Curtain_0"
    },
    {
      "mesh": 7,
      "name": "Apartment 1_Roof Side_0"
    },
    {
      "mesh": 8,
      "name": "Apartment 1_Roof tile_0"
    }
  ],
  "samplers": [
    {
      "magFilter": 9729,
      "minFilter": 9987,
      "wrapS": 10497,
      "wrapT": 10497
    }
  ],
  "scene": 0,
  "scenes": [
    {
      "name": "Sketchfab_Scene",
      "nodes": [
        0
      ]
    }
  ],
  "textures": [
    {
      "sampler": 0,
      "source": 0
    },
    {
      "sampler": 0,
      "source": 1
    },
    {
      "sampler": 0,
      "source": 2
    },
    {
      "sampler": 0,
      "source": 3
    }
  ]
}